<svg xmlns="http://www.w3.org/2000/svg" width="223.997" height="47.996" viewBox="0 0 223.997 47.996"><g transform="translate(0 0)"><path d="M597.858,852.576c0,2.939-7.59,9.366-11.116,12.193a.174.174,0,1,0,.2.286c4.748-2.746,16.489-10.128,16.489-15.959,0-3.193-4.934-5.135-9.4-8-3.8-2.447-7.138-6.091-8.179-6.091-2.262,0-4.35,2.61-4.35,4.873C581.5,844.919,597.858,847.7,597.858,852.576Z" transform="translate(-561.476 -819.921)" fill="#313131"/><path d="M643.234,866.073c4.42-3.536,10.093-9.4,10.093-12.877a.731.731,0,0,1,.011-.11.7.7,0,0,1,.019-.082.221.221,0,0,1,.017-.056.172.172,0,0,1,.015-.037.606.606,0,0,1,.471-.391.7.7,0,0,1,.163-.021.689.689,0,0,1,.342.094,16.483,16.483,0,0,1,2.094,2c.979.876,2.088,1.375,2.088,2.436,0,2.436-6.961,8.353-12.181,11.833-4.241,2.827-8.941,8.411-10.556,10.407a.174.174,0,0,1-.3-.162C636.336,876.6,638.974,869.482,643.234,866.073Z" transform="translate(-635.503 -831.33)" fill="#371"/><path d="M594.285,791.5c-4.552,0-8.266,5.769-9.736,8.43a.174.174,0,0,0,.28.2c1.782-1.966,5.729-5.848,9.107-5.848,2.644,0,6.542,4.706,8.717,8.458a.174.174,0,0,0,.323-.1C602.753,794.143,598.354,791.5,594.285,791.5Z" transform="translate(-562.078 -791.5)" fill="#313131"/><path d="M541.676,808.3c.845,1.768,2.864,6.346,3.091,10.122a.7.7,0,0,0,.732.654,17.535,17.535,0,0,0,9.5-3.681.174.174,0,0,1,.262.215c-.958,1.885-4.278,6.964-12.215,6.964a1.392,1.392,0,0,1-1.392-1.392c0-5.25-.219-10.756-.31-12.8a.174.174,0,0,1,.332-.082Z" transform="translate(-499.279 -802.387)" fill="#371"/><circle cx="3.828" cy="3.828" r="3.828" transform="translate(44.638 1.914)" fill="#313131"/><path d="M15.614-.4l-.036-12.2H13.2L8.581-5.023,3.892-12.607h-2.4V-.4h2.72V-7.569L7.883-1.694H9.189l3.686-6.031L12.893-.4Zm7.534.209c3.561,0,5.673-1.987,5.673-5.578v-6.834H25.957v6.729c0,2.318-1.02,3.277-2.792,3.277-1.754,0-2.792-.959-2.792-3.277v-6.729h-2.9v6.834C17.475-2.182,19.586-.195,23.148-.195Zm11.65,0c3.579,0,5.315-1.743,5.315-3.783,0-4.48-7.284-2.929-7.284-5.177,0-.767.662-1.4,2.38-1.4a7.218,7.218,0,0,1,3.472.959l.9-2.144a8.578,8.578,0,0,0-4.349-1.081c-3.561,0-5.279,1.725-5.279,3.8,0,4.533,7.283,2.963,7.283,5.247,0,.75-.7,1.308-2.416,1.308A7.5,7.5,0,0,1,30.681-3.74L29.7-1.6A9.1,9.1,0,0,0,34.8-.195Zm9.18-2.475V-5.494h5.816v-2.2H43.978v-2.647h6.586v-2.266H41.1V-.4h9.7V-2.67ZM57.668-.195c3.561,0,5.673-1.987,5.673-5.578v-6.834H60.478v6.729c0,2.318-1.02,3.277-2.792,3.277-1.754,0-2.792-.959-2.792-3.277v-6.729H52v6.834C52-2.182,54.107-.195,57.668-.195ZM80.36-.4,77.55-4.327a3.966,3.966,0,0,0,2.577-3.853c0-2.737-2.094-4.428-5.44-4.428H69.265V-.4h2.9V-3.8H74.83L77.246-.4ZM77.192-8.179c0,1.325-.895,2.126-2.666,2.126H72.164V-10.3h2.362C76.3-10.3,77.192-9.521,77.192-8.179Zm7.1,5.508V-5.494h5.816v-2.2H84.3v-2.647h6.586v-2.266h-9.47V-.4h9.7V-2.67Zm16.553-.453A4.7,4.7,0,0,1,98.6-2.6a3.82,3.82,0,0,1-2.892-1.054A3.817,3.817,0,0,1,94.533-6.5a3.808,3.808,0,0,1,1.18-2.865,3.811,3.811,0,0,1,2.92-1.04,4.292,4.292,0,0,1,3.239,1.378l1.861-1.673a6.765,6.765,0,0,0-5.243-2.109c-3.991,0-6.89,2.632-6.89,6.31S94.5-.195,98.434-.195A8.8,8.8,0,0,0,103.5-1.746V-6.7h-2.65ZM105.181-.4h2.9v-12.2h-2.9Zm10.934.209c3.937,0,6.854-2.667,6.854-6.31s-2.917-6.31-6.854-6.31c-3.955,0-6.854,2.684-6.854,6.31S112.16-.195,116.115-.195Zm0-2.405a3.773,3.773,0,0,1-2.808-1.1A3.77,3.77,0,0,1,112.2-6.5a3.77,3.77,0,0,1,1.107-2.808,3.773,3.773,0,0,1,2.812-1.1,3.773,3.773,0,0,1,2.81,1.1A3.77,3.77,0,0,1,120.034-6.5a3.77,3.77,0,0,1-1.109,2.8,3.773,3.773,0,0,1-2.81,1.1Zm16.661-10.006v7.4l-6.228-7.409h-2.4V-.4h2.863V-7.812L133.259-.4h2.38v-12.2ZM146.967-.4h3.042l-5.6-12.2h-2.863L135.961-.4h2.971l1.11-2.615h5.816Zm-6-4.759,1.986-4.672,1.986,4.672ZM150.314-.4h9.18V-2.7h-6.281v-9.9h-2.9ZM1.494,18.966H7.185c4.1,0,6.908-2.405,6.908-6.1s-2.81-6.1-6.908-6.1H1.494Zm2.9-2.318V9.081H7.042c2.487,0,4.116,1.447,4.116,3.783S9.53,16.647,7.042,16.647Zm13.762.052V13.875h5.816v-2.2H18.155V9.028H24.74V6.762H15.274v12.2h9.7V16.7Zm15.068,0V13.875H39.04v-2.2H33.223V9.028h6.586V6.762H30.342v12.2h9.7V16.7Zm12.241,2.475c3.579,0,5.315-1.743,5.315-3.783,0-4.48-7.283-2.929-7.283-5.177,0-.767.662-1.4,2.38-1.4a7.218,7.218,0,0,1,3.472.959l.895-2.144A8.578,8.578,0,0,0,45.9,6.548c-3.561,0-5.279,1.725-5.279,3.8,0,4.533,7.284,2.963,7.284,5.247,0,.75-.7,1.308-2.416,1.308A7.5,7.5,0,0,1,41.35,15.63l-.984,2.126a9.1,9.1,0,0,0,5.1,1.419ZM57.185,6.762H51.763v12.2h2.9V15.6h2.523c3.346,0,5.44-1.69,5.44-4.411C62.625,8.454,60.531,6.762,57.185,6.762ZM57.024,13.3H54.662V9.063h2.362c1.772,0,2.666.785,2.666,2.126,0,1.326-.89,2.11-2.666,2.11Zm12.9,5.874c3.937,0,6.854-2.667,6.854-6.31s-2.917-6.31-6.854-6.31c-3.955,0-6.854,2.684-6.854,6.31s2.9,6.311,6.857,6.311Zm0-2.405A3.771,3.771,0,0,1,66,12.863a3.919,3.919,0,0,1,7.838,0,3.771,3.771,0,0,1-3.916,3.906Zm19.13,2.2-2.81-3.922a3.966,3.966,0,0,0,2.58-3.853c0-2.737-2.094-4.428-5.44-4.428H77.962v12.2h2.9v-3.4h2.666l2.416,3.4ZM85.89,11.193c0,1.325-.895,2.126-2.666,2.126H80.861V9.063h2.362C85,9.063,85.89,9.848,85.89,11.193Zm6.639,7.775h2.9v-9.9h4.009v-2.3H88.52v2.3h4.009ZM102.873,16.7V13.875h5.816v-2.2h-5.816V9.028h6.586V6.762H99.991v12.2h9.7V16.7Zm12.241,2.475c3.579,0,5.315-1.743,5.315-3.783,0-4.48-7.284-2.929-7.284-5.177,0-.767.662-1.4,2.38-1.4A7.218,7.218,0,0,1,119,9.778l.895-2.144a8.578,8.578,0,0,0-4.349-1.081c-3.561,0-5.279,1.725-5.279,3.8,0,4.533,7.284,2.963,7.284,5.247,0,.75-.7,1.308-2.416,1.308A7.5,7.5,0,0,1,111,15.635l-.984,2.126a9.1,9.1,0,0,0,5.1,1.413Z" transform="translate(64.503 20.816)" fill="#333"/></g></svg>