<svg xmlns="http://www.w3.org/2000/svg" xmlns:xlink="http://www.w3.org/1999/xlink" width="24" height="24" viewBox="0 0 24 24"><defs><clipPath id="a"><rect width="24" height="24" fill="none"/></clipPath></defs><g clip-path="url(#a)"><path d="M6.334,14.861a1.137,1.137,0,0,0,1.608.01l.01-.01,3.642-3.67a.571.571,0,0,1,.808,0l0,0,3.642,3.67a1.137,1.137,0,0,0,1.608.01l.01-.01a1.161,1.161,0,0,0,0-1.631L12.808,8.337A1.139,1.139,0,0,0,11.2,8.33l-.007.007L6.334,13.23a1.2,1.2,0,0,0,0,1.631" fill="#807e7d"/></g></svg>