<svg xmlns="http://www.w3.org/2000/svg" xmlns:xlink="http://www.w3.org/1999/xlink" width="32" height="32" viewBox="0 0 32 32"><defs><clipPath id="a"><rect width="24" height="24" rx="8" transform="translate(359 547)" fill="#fbfffa" stroke="#707070" stroke-width="1"/></clipPath></defs><g transform="translate(-352 -542)"><rect width="32" height="32" rx="6" transform="translate(352 542)" fill="#483"/><g transform="translate(-3 -1)" clip-path="url(#a)"><path d="M75.17,8.6,71.164,4.618a.948.948,0,0,0-1.335,0,.934.934,0,0,0,0,1.328l3.728,3.709H62.944a.939.939,0,1,0,0,1.878H73.559l-3.729,3.709a.934.934,0,0,0,0,1.328.947.947,0,0,0,1.335,0l4.006-3.983a2.805,2.805,0,0,0,0-3.984Z" transform="translate(302 548.406)" fill="#fdfdfd"/></g></g></svg>