<svg xmlns="http://www.w3.org/2000/svg" xmlns:xlink="http://www.w3.org/1999/xlink" width="32" height="32" viewBox="0 0 32 32"><defs><clipPath id="a"><rect width="24" height="24" rx="8" transform="translate(359 547)" fill="#fbfffa" stroke="#707070" stroke-width="1"/></clipPath></defs><g transform="translate(-352 -542)"><rect width="32" height="32" rx="6" transform="translate(352 542)" fill="#483"/><g transform="translate(-3 -1)" clip-path="url(#a)"><path d="M8.245,13.165l3.982-4.006a.949.949,0,0,0,0-1.335.934.934,0,0,0-1.321-.007l-.007.007L7.19,11.552V.939a.939.939,0,0,0-1.878,0V11.554L1.6,7.825A.934.934,0,0,0,.282,7.818l-.007.007a.947.947,0,0,0,0,1.335l3.983,4.006a2.805,2.805,0,0,0,3.967.017l.017-.017Z" transform="translate(364.75 552)" fill="#fbfffa"/></g></g></svg>