<svg xmlns="http://www.w3.org/2000/svg" xmlns:xlink="http://www.w3.org/1999/xlink" width="506" height="483" viewBox="0 0 506 483"><defs><clipPath id="a"><rect width="506" height="483" fill="none"/></clipPath><clipPath id="f"><rect width="399.226" height="73.343" fill="none"/></clipPath><clipPath id="g"><rect width="71.662" height="35.891" fill="none"/></clipPath><clipPath id="h"><rect width="39.674" height="14.541" fill="none"/></clipPath><clipPath id="i"><rect width="4.846" height="4.959" fill="none"/></clipPath><clipPath id="j"><rect width="29.521" height="58.448" fill="none"/></clipPath><clipPath id="k"><rect width="4.854" height="4.889" fill="none"/></clipPath><clipPath id="l"><rect width="62.638" height="16.281" fill="none"/></clipPath><clipPath id="m"><rect width="72.242" height="44.444" fill="none"/></clipPath><clipPath id="n"><rect width="226.878" height="62.738" fill="none"/></clipPath><clipPath id="p"><rect width="36.807" height="79.796" fill="none"/></clipPath></defs><g clip-path="url(#a)"><g clip-path="url(#a)"><path d="M347.74,420.6c-44.061-2.591-88.12-6.18-132.18-8.77-6.529-.384-13.2-.8-19.234-3.34-5.649-2.38-10.378-6.475-15.588-9.707s-11.456-5.66-17.4-4.152-10.686,8.38-8.085,13.94c-3.088-9.913-6.4-20.219-13.631-27.661S122,369.961,113.5,375.9c-9.475,6.622-9.492,20.412-8.52,31.946-3-8.647-6.151-17.545-12.278-24.334S76.632,372.527,68.1,375.8c-6.222,2.388-10.583,8.309-12.619,14.667s-2.057,13.17-1.812,19.841l-.2,10.634Z" transform="translate(8.76 61.473)" fill="#e0e0e0"/><path d="M237.49,68.767c1.113-8.091-10.3-14.747-18.868-15.438-4.089-.33-8.335.3-12.207-1.055-8.391-2.927-11.743-13.778-19.931-17.234-6.122-2.584-13.169-.284-19.1,2.7s-11.8,6.751-18.428,7.177c-5.768.369-12.029-1.771-17.076,1.048-3.759,2.1-5.728,6.437-9.194,8.995-3.39,2.5-7.813,3.033-12.019,3.263s-8.561.271-12.391,2.026-7,5.809-6.2,9.95Z" transform="translate(15.064 5.592)" fill="#ebebeb"/><path d="M409.938,18.774c.539-3.916-4.985-7.138-9.134-7.474-1.98-.16-4.035.143-5.91-.51-4.062-1.418-5.685-6.67-9.648-8.344C382.282,1.2,378.87,2.31,376,3.757s-5.712,3.269-8.921,3.474c-2.792.178-5.824-.857-8.267.508-1.819,1.017-2.773,3.116-4.45,4.354a10.611,10.611,0,0,1-5.819,1.58,16.384,16.384,0,0,0-6,.981c-1.854.849-3.388,2.812-3,4.817Z" transform="translate(55.619 0.314)" fill="#f5f5f5"/><path d="M127.679,30.9c.686-4.982-6.341-9.081-11.62-9.508-2.517-.2-5.133.182-7.518-.65-5.167-1.8-7.231-8.485-12.274-10.613C92.5,8.542,88.157,9.959,84.5,11.8s-7.266,4.159-11.349,4.419c-3.552.228-7.409-1.09-10.515.646-2.316,1.293-3.529,3.964-5.663,5.539-2.088,1.541-4.811,1.868-7.4,2.009s-5.272.167-7.631,1.248-4.31,3.577-3.821,6.127Z" transform="translate(6.233 1.557)" fill="#ebebeb"/></g><g clip-path="url(#a)"><path d="M459.466,98.954h0c-18-29.318-48.009-49.541-82.087-54.12a117.266,117.266,0,0,0-39.845,1.377c-39.043,8.26-73.016,37.441-87.1,74.81-8.281,21.978-10.594,47.284-26.311,64.73-20.452,22.7-55.176,23.417-85.706,22.477s-65.276-.139-85.629,22.655c-12.747,14.275-16.8,34.576-15.771,53.694,2.722,50.615,38.408,95.873,83.792,118.368S219.63,427.455,269.3,417.56c69.582-13.863,135.753-51.933,175.527-110.733,37.895-56.022,48.823-131.388,22.247-193.271a113.426,113.426,0,0,0-7.607-14.6" transform="translate(6.04 7.213)" fill="#ebebeb"/></g><g clip-path="url(#a)"><path d="M506,414.187c0,.168-113.281.3-252.988.3C113.258,414.49,0,414.355,0,414.187s113.258-.3,253.012-.3c139.707,0,252.988.135,252.988.3" transform="translate(0 68.229)" fill="#263238"/></g><g clip-path="url(#a)"><path d="M10.712,138.128S102.506,183.338,128,192.088c20.844,7.152,54.348,9.432,74.638,7.238a60.147,60.147,0,0,0,11.328-2.135c16.027-5.1,96.893-21.875,96.893-21.875L407.6,170.03l-2.157-13.173L294.493,163.59s-64.13,8.894-73.1,19.483c0,0-7.624,10.59-21.078,12.385s-73.1-12.568-79.825-19.3-8.52-9.874-27.8-14.363S29.9,126.784,29.9,126.784L8.377,137.557" transform="translate(1.372 20.901)" fill="#4d993a"/><g transform="translate(9.75 147.685)" opacity="0.5"><g clip-path="url(#f)"><path d="M10.712,138.128S102.506,183.338,128,192.088c20.844,7.152,54.348,9.432,74.638,7.238a60.147,60.147,0,0,0,11.328-2.135c16.027-5.1,96.893-21.875,96.893-21.875L407.6,170.03l-.826-5.048-1.33-8.125L294.493,163.59s-64.13,8.894-73.1,19.483c0,0-7.624,10.59-21.078,12.385s-73.1-12.568-79.825-19.3-8.52-9.874-27.8-14.363S29.9,126.784,29.9,126.784L8.377,137.557" transform="translate(-8.377 -126.784)"/></g></g><path d="M356.612,108.773l-126.318.546a23.349,23.349,0,0,1-9.148-2.442c-4.392-2.072-13.684-7.745-16.528-9.5a3.327,3.327,0,0,0-2.4-.471c-.526.107-.931.351-.709.877.3.718,8.181,7.478,8.181,7.478l-13.967-4.405a2.79,2.79,0,0,0-2.345.26c-.319.205-.549.468-.5.793.1.6,8.452,4.564,8.452,4.564l-10.6-1.811a1.864,1.864,0,0,0-2.2,1.46,1.39,1.39,0,0,0-.013.295c.059.989,15.182,5.862,15.182,5.862l-13.929,0A2.1,2.1,0,0,0,187.9,115.3c.794,1.568,21.814,2.113,22.023,4.468s-5.979,2.846-8.074,6.03a2.778,2.778,0,0,0,1.308,4.451c2.145-2.566,10.362-4.654,10.362-4.654l12.766.68,119.6,17.044,18.425-11.715,7.092-12.855Z" transform="translate(30.749 15.966)" fill="#ffbe9d"/><path d="M330.362,106.729l-128.98,25.627a24.309,24.309,0,0,1-9.832-.679c-4.9-1.245-15.519-5.2-18.771-6.425a3.47,3.47,0,0,0-2.544-.006c-.517.214-.882.544-.549,1.037.453.674,9.841,6.02,9.841,6.02l-15.147-1.73a2.905,2.905,0,0,0-2.345.73.875.875,0,0,0-.35.91c.219.594,9.541,2.986,9.541,2.986l-11.193.254a1.941,1.941,0,0,0-1.954,1.927,1.486,1.486,0,0,0,.045.3c.256,1,16.677,2.976,16.677,2.976l-14.235,2.762a2.182,2.182,0,0,0-1.319,3.463c1.122,1.443,22.71-2.171,23.392.2s-5.546,4.093-7.056,7.764a2.892,2.892,0,0,0,2.219,4.289c1.683-3.048,9.666-6.812,9.666-6.812l13.182-1.838,125.6-6.318,16.509-15.629,4.7-14.546Z" transform="translate(25.899 17.594)" fill="#ffbe9d"/><path d="M278.274,114.427a4.537,4.537,0,0,1-.834.229l-2.415.54-8.91,1.864-29.454,5.845L207.2,128.757l-8.922,1.8-2.43.467a4.679,4.679,0,0,1-.857.122,4.526,4.526,0,0,1,.83-.242l2.407-.578c2.093-.492,5.128-1.171,8.885-1.986,7.511-1.632,17.914-3.769,29.426-6.026l29.488-5.672,8.946-1.674,2.438-.429a4.544,4.544,0,0,1,.858-.109" transform="translate(31.947 18.863)" fill="#eb996e"/><path d="M340.472,56.379a6.451,6.451,0,0,1-4.331,5.137c-1.283.408-2.676.4-3.937.867s-2.439,1.687-2.167,3.005c.2.988,1.114,1.634,1.857,2.315s1.413,1.731.978,2.641c-.478,1-1.919,1.073-2.672,1.886a2.592,2.592,0,0,0,.151,3.223,11.538,11.538,0,0,0,2.732,2.176,4.511,4.511,0,0,1,2.087,2.7" transform="translate(54.017 9.294)" fill="#263238"/><path d="M385.713,78.859c3.473-7.2,1.045-16.237-4.236-22.238s-12.9-9.434-20.559-11.707c-1.1-.326-2.469-.566-3.246.28a2.172,2.172,0,0,0,.175,2.768,6.314,6.314,0,0,0,2.564,1.557,23.986,23.986,0,0,0-9.983-2.806,6.343,6.343,0,0,0-3.524.732,2.893,2.893,0,0,0-1.407,3.1,1.9,1.9,0,0,0,2.888,1.008,14.707,14.707,0,0,0-9.5,2.155c-2.005,1.269-3.829,3.453-3.367,5.781.272,1.368,1.28,2.473,1.717,3.8.8,2.418-.418,4.979-1.355,7.347a22.837,22.837,0,0,0-1.714,11.614,13.483,13.483,0,0,0,6.114,9.716" transform="translate(54.718 7.355)" fill="#263238"/><path d="M372.044,54.5l-1.116-.414a22.818,22.818,0,0,0-28.66,15.792l-14.615,48.24L353.136,139.7l7.791-20.264s12.232,2.483,16.652-9.038c2.137-5.567,5.6-17.391,8.617-28.124A22.994,22.994,0,0,0,372.044,54.5" transform="translate(53.682 8.752)" fill="#ffbe9d"/><path d="M358.211,111.308a28.666,28.666,0,0,1-13.491-9.871s.485,9.65,12.41,12.88Z" transform="translate(56.478 16.722)" fill="#eb996e"/><path d="M357.781,61.236c-.933-2.1-2.1-6.651-3.7-8.291s-4.23-1.122-6.443-.514a7.459,7.459,0,0,0-4.987,4.6c-3.105,8.34-3.543,16.226-5.876,24.435a3.022,3.022,0,0,0-.147,1.665c.419,1.4,1.946,1.906,3.389,2.127,3.556.546,5.394-2.037,7.1-5.154a37.318,37.318,0,0,0,1.277-5.774A15.734,15.734,0,0,1,357.225,61.5Z" transform="translate(55.141 8.547)" fill="#263238"/><path d="M343.343,73.489c-.165-.158-7.076-5.294-9.748,2.712s5.91,9.04,6,8.816,3.749-11.527,3.749-11.527" transform="translate(54.57 11.823)" fill="#ffbe9d"/><path d="M337.847,80.807c-.027-.037-.172.051-.443.08a1.468,1.468,0,0,1-1.049-.327c-.741-.593-1.006-2.174-.562-3.63a4.841,4.841,0,0,1,1.057-1.866,1.7,1.7,0,0,1,1.4-.72.746.746,0,0,1,.695.657c.033.26-.071.4-.034.43.016.028.216-.076.263-.429a.936.936,0,0,0-.148-.607,1.113,1.113,0,0,0-.7-.461,2.064,2.064,0,0,0-1.87.755,4.988,4.988,0,0,0-1.228,2.07c-.488,1.631-.166,3.417.879,4.138a1.574,1.574,0,0,0,1.345.214c.313-.115.416-.28.392-.3" transform="translate(54.886 12.182)" fill="#eb996e"/><path d="M352.548,63.462c3.967-2.676,8.026-1.312,10.732.291s5,3.859,7.779,5.325,6.424,1.991,8.929.089c1.855-1.409,2.661-3.831,2.876-6.154a16.971,16.971,0,0,0-3.972-12.458c-.762-.888-1.93-1.761-3-1.292-1.326.582-1.134,2.5-.719,3.889,0,0-13.448-5.085-21.7-2.27s-.924,12.58-.924,12.58" transform="translate(57.269 8.099)" fill="#263238"/><path d="M356.61,44.738c.071-.013.151.578.557,1.547a12.31,12.31,0,0,0,2.543,3.611,19.913,19.913,0,0,0,5.349,3.8,15.664,15.664,0,0,0,3.654,1.259c1.32.3,2.73.52,4.16.927a9.657,9.657,0,0,1,3.874,2,8.616,8.616,0,0,1,2.327,3.348,7.508,7.508,0,0,1,.461,3.665,7.034,7.034,0,0,1-4.856,5.689,5.09,5.09,0,0,1-1.231.191c-.287,0-.434-.014-.435-.038,0-.068.6-.066,1.584-.414a6.891,6.891,0,0,0,3.343-2.715,6.493,6.493,0,0,0,1.017-2.784,7.049,7.049,0,0,0-.485-3.357,8.076,8.076,0,0,0-2.178-3.065,9.108,9.108,0,0,0-3.616-1.839c-1.37-.391-2.77-.614-4.119-.931a15.907,15.907,0,0,1-3.787-1.351,19.381,19.381,0,0,1-5.422-4.04,11.361,11.361,0,0,1-2.437-3.856,6.106,6.106,0,0,1-.284-1.213c-.037-.282-.044-.43-.019-.433" transform="translate(58.423 7.375)" fill="#455a64"/><path d="M348.94,46.753c.06-.014.191.594.64,1.6a11.932,11.932,0,0,0,2.741,3.711,16.834,16.834,0,0,0,5.925,3.413,57.291,57.291,0,0,0,8.28,1.988,32.037,32.037,0,0,1,8.3,2.451,5.706,5.706,0,0,1,2.693,2.784,5.361,5.361,0,0,1,.162,3.377,6.646,6.646,0,0,1-2.9,3.776,7.057,7.057,0,0,1-1.151.6c-.275.112-.427.149-.435.128-.028-.056.546-.3,1.429-.958a6.637,6.637,0,0,0,2.574-3.674,4.927,4.927,0,0,0-.218-3.03,5.163,5.163,0,0,0-2.464-2.438,33.25,33.25,0,0,0-8.122-2.331,52.868,52.868,0,0,1-8.366-2.07,16.675,16.675,0,0,1-6.047-3.662,11.172,11.172,0,0,1-2.65-3.966,7.918,7.918,0,0,1-.35-1.252c-.048-.294-.06-.448-.037-.453" transform="translate(57.167 7.707)" fill="#455a64"/><path d="M374.733,84.8c-.307.155-1.313-1.342-3.254-2.027-1.928-.712-3.706-.22-3.831-.532-.066-.142.312-.486,1.092-.716a5.236,5.236,0,0,1,3.171.136,5.03,5.03,0,0,1,2.485,1.906c.434.67.485,1.167.337,1.234" transform="translate(60.233 13.41)" fill="#263238"/><path d="M358.809,79.92c-.307.155-1.315-1.342-3.254-2.027-1.928-.712-3.707-.22-3.833-.532-.065-.142.311-.486,1.093-.716a5.244,5.244,0,0,1,3.171.135,5.049,5.049,0,0,1,2.485,1.907c.432.67.484,1.167.338,1.234" transform="translate(57.624 12.605)" fill="#263238"/><path d="M359.41,93.362a13.578,13.578,0,0,1,3.351.552c.513.126,1.017.193,1.221-.115a2.676,2.676,0,0,0,.191-1.587q-.059-2.046-.123-4.294c-.123-6.1-.026-11.038.219-11.04s.546,4.935.67,11.032q.028,2.247.054,4.295a3.047,3.047,0,0,1-.434,2.036,1.318,1.318,0,0,1-1.072.434,3.535,3.535,0,0,1-.882-.183,13.366,13.366,0,0,1-3.194-1.131" transform="translate(58.884 12.673)" fill="#263238"/><path d="M354.226,90.439c.321.094-.422,2.2.847,4.338s3.593,2.7,3.5,3c-.017.143-.645.232-1.6-.079a5.572,5.572,0,0,1-2.967-2.387,4.852,4.852,0,0,1-.576-3.59c.233-.909.653-1.348.793-1.284" transform="translate(57.885 14.908)" fill="#263238"/><path d="M361.8,70.612c-.379.459-2.226-.48-4.6-1.015-2.361-.584-4.432-.57-4.566-1.15-.055-.275.442-.657,1.365-.9a8.172,8.172,0,0,1,6.982,1.649c.715.634.988,1.2.817,1.419" transform="translate(57.774 11.1)" fill="#263238"/><path d="M376.26,77.5c-.5.319-1.67-.614-3.269-1.207-1.577-.649-3.071-.759-3.22-1.333-.058-.273.313-.637,1.056-.843a5.043,5.043,0,0,1,5.229,2.047c.406.655.432,1.174.2,1.336" transform="translate(60.581 12.196)" fill="#263238"/><path d="M370.927,124.742c.6,3.189,1.465,25.4-.184,34.406-3.064,16.734-26.126,53.609-27.628,56.535-.886,1.724-19.976,45.486-19.976,45.486s-83.148-25.849-87.311-46.919c0,0,28.083-20.916,35.016-27.355,1.372-1.274,26.829-45.145,26.829-45.145l15.353-26.557s11.864-11.6,17.989-11.6H344.5Z" transform="translate(38.637 17.077)" fill="#4d993a"/><g transform="translate(274.465 231.328)" opacity="0.4"><g clip-path="url(#g)"><path d="M235.828,198.59s9.783.772,37.119,16.111,34.543,19.78,34.543,19.78l-56.062-19.652s-14.589-8.579-15.6-16.239" transform="translate(-235.828 -198.59)"/></g></g><path d="M324.717,103.591l-15.287,1.363-43.916,9.008,18.974,35.375,48.424-4.7s11.731-23.148,7.374-28.18-15.569-12.869-15.569-12.869" transform="translate(43.501 17.077)" fill="#4d993a"/><g transform="translate(325.593 162.66)" opacity="0.4"><g clip-path="url(#h)"><path d="M286.406,142.983l33.025-3.342-39.673,14.541Z" transform="translate(-279.758 -139.64)"/></g></g><path d="M327.286,139.443c.015.167-8.638,1.111-19.327,2.108s-19.369,1.672-19.384,1.5,8.636-1.111,19.328-2.108,19.367-1.672,19.383-1.505" transform="translate(47.279 22.983)" fill="#263238"/><path d="M330.963,124.385c-.108.012-.232-1.283-.786-3.28a23.705,23.705,0,0,0-9.111-12.954c-1.691-1.2-2.865-1.748-2.819-1.847a2.722,2.722,0,0,1,.865.3,15.04,15.04,0,0,1,2.194,1.188,21.573,21.573,0,0,1,9.285,13.2,15.006,15.006,0,0,1,.377,2.467,2.675,2.675,0,0,1-.006.918" transform="translate(52.14 17.523)" fill="#263238"/><path d="M273.562,178.865a9.693,9.693,0,0,1,1.71-.339c1.106-.168,2.7-.466,4.648-.9s4.25-1.039,6.763-1.843a70.815,70.815,0,0,0,15.528-7.22c2.233-1.406,4.189-2.764,5.768-3.986s2.84-2.24,3.679-2.979a9.55,9.55,0,0,1,1.363-1.089,9.652,9.652,0,0,1-1.2,1.265c-.795.793-2.013,1.873-3.574,3.14a63.6,63.6,0,0,1-5.735,4.12,65.56,65.56,0,0,1-15.655,7.283,64.262,64.262,0,0,1-6.846,1.73c-1.974.376-3.585.613-4.7.708a9.4,9.4,0,0,1-1.741.1" transform="translate(44.819 26.461)" fill="#263238"/><path d="M277.533,169.952c-.007-.191,4.112-.24,9.013-1.4,4.91-1.124,8.628-2.9,8.705-2.722a9.583,9.583,0,0,1-2.381,1.273,36.177,36.177,0,0,1-12.639,2.939,9.556,9.556,0,0,1-2.7-.092" transform="translate(45.47 27.336)" fill="#263238"/><path d="M323.509,201.549a9.643,9.643,0,0,1-1.578.755c-1.03.455-2.545,1.054-4.438,1.739a102.765,102.765,0,0,1-30.789,5.943c-2.011.07-3.64.077-4.766.037a9.562,9.562,0,0,1-1.745-.113,9.631,9.631,0,0,1,1.743-.123c1.122-.033,2.744-.106,4.746-.229a120.043,120.043,0,0,0,30.671-5.92c1.9-.63,3.437-1.166,4.49-1.554a9.685,9.685,0,0,1,1.665-.535" transform="translate(45.906 33.225)" fill="#263238"/><path d="M358.977,150.258,334.7,141.977c-3.462,13.671-12.8,24.935-24.559,35.205L340.2,193.419a337.307,337.307,0,0,0,15.9-31.89,36.142,36.142,0,0,0,2.879-11.271" transform="translate(50.812 23.405)" fill="#f5f5f5"/><path d="M336.147,139.64l-2.046,6.493,3.324,1.563,1.939-6.877Z" transform="translate(54.738 23.02)" fill="#e0e0e0"/><path d="M331.539,170.127a34.886,34.886,0,0,1,4.453-.157l5.676-11.36-6.523-3.264-1.4,2.812,3.024,1.513Z" transform="translate(54.318 25.609)" fill="#4d993a"/><path d="M347.943,165.623c.056-.013.15.013.2,0,.477-1.349,1.086-2.643,1.672-3.948a10.536,10.536,0,0,0-1.79-1.145,7.852,7.852,0,0,0-7.41-.2l1.728,2.92a4.13,4.13,0,0,1,3.888.054c1.241.622,1.8,1.428,1.707,2.315" transform="translate(55.806 26.294)" fill="#4d993a"/><path d="M338.082,167.4c-1.564.256-2.851.183-4.389.559l-.944,1.866,3.5,1.751,2.125-4.252c-.1.027-.2.059-.292.076" transform="translate(54.516 27.583)" fill="#4d993a"/><path d="M346.642,168.184c0-.007-.211.008-.207,0l-7.392,2.232-1.134,2.27L343,175.232c.055-.156.1-.317.176-.472a19.625,19.625,0,0,1,1.331-2.34l-.242-.122.392-.119Z" transform="translate(55.362 27.725)" fill="#e8505b"/><path d="M347.2,166.051a3.384,3.384,0,0,1-.968.353c-.633.192-1.56.432-2.712.7a77.66,77.66,0,0,1-18.343,1.9c-1.181-.024-2.137-.07-2.8-.128a3.4,3.4,0,0,1-1.021-.147,30.81,30.81,0,0,1,3.815-.155c2.352-.059,5.6-.211,9.168-.578s6.776-.89,9.091-1.313a30.616,30.616,0,0,1,3.766-.631" transform="translate(52.65 27.371)" fill="#263238"/><path d="M324.2,238.384c-.641,1.924-50.62,77-93.556,92.395l-18.584-2.887-98.691-29.184,10.895-27.58,92.282,19.884,42.415-48.1,12.849-33.173Z" transform="translate(18.573 34.576)" fill="#ffbe9d"/><path d="M118.322,291.883l41.116,12.124,9.694-31.6-45.252-10.712Z" transform="translate(19.385 43.141)" fill="#455a64"/><path d="M123.99,292.242l-.75.129s-24.015,25.3-29.709,23.264l24.883-58.144,15.224,6.435-1.4,1.927c-5.621,7.719-8.01,16.84-8.246,26.389" transform="translate(15.324 42.448)" fill="#4d993a"/><g transform="translate(138.419 309.041)" opacity="0.6"><g clip-path="url(#i)"><path d="M123.754,268.141a2.583,2.583,0,0,0-2-2.8,2.481,2.481,0,0,0-2.793,1.965,2.724,2.724,0,0,0,2.138,2.956c1.265.085,2.79-1.1,2.679-2.366" transform="translate(-118.933 -265.305)" fill="#fff"/></g></g><g transform="translate(108.854 299.94)" opacity="0.6"><g clip-path="url(#j)"><path d="M118.414,257.492l4.639,2.178L97.46,314.6s-2.232,2.106-3.929,1.033Z" transform="translate(-93.53 -257.492)" fill="#fff"/></g></g><path d="M119.122,289.3c-.279-.13.2-1.606-.115-3.393-.268-1.8-1.188-3.044-.964-3.257.166-.238,1.682.912,2.024,3.085.362,2.167-.711,3.739-.945,3.566" transform="translate(19.334 46.59)" fill="#263238"/><path d="M114.96,293.455c-.3-.052-.26-1.49-1.046-2.968-.744-1.5-1.937-2.3-1.8-2.579.07-.285,1.816.231,2.759,2.087.96,1.849.363,3.569.091,3.46" transform="translate(18.366 47.45)" fill="#263238"/><path d="M107.019,292.965c.05-.284,1.636-.071,2.878,1.323s1.291,2.988,1,3.007c-.3.061-.767-1.158-1.8-2.288-1.01-1.154-2.172-1.748-2.079-2.042" transform="translate(17.533 48.278)" fill="#263238"/><path d="M119.363,288.932c-.119-.047.186-1.244,1.26-2.905a14.22,14.22,0,0,1,2.239-2.647,14.948,14.948,0,0,1,1.6-1.292,3.852,3.852,0,0,1,1.06-.586,1.346,1.346,0,0,1,1.565.517,1.7,1.7,0,0,1,.115,1.521,4.06,4.06,0,0,1-.618,1.027,11.165,11.165,0,0,1-4.305,3.475c-1.825.814-3.082.82-3.1.7-.038-.169,1.13-.445,2.749-1.376a12.634,12.634,0,0,0,2.573-1.971,11.684,11.684,0,0,0,1.23-1.45c.425-.547.654-1.069.448-1.344-.08-.1-.119-.127-.354-.076a3.2,3.2,0,0,0-.776.432,16.659,16.659,0,0,0-1.536,1.161,17.712,17.712,0,0,0-2.283,2.353c-1.177,1.467-1.724,2.53-1.875,2.459" transform="translate(19.527 46.393)" fill="#263238"/><path d="M119.125,287.416c0-.119,1.257-.247,3.139.437a10.28,10.28,0,0,1,3.016,1.762,10.39,10.39,0,0,1,1.449,1.5,2.62,2.62,0,0,1,.674,2.487,1.481,1.481,0,0,1-1.333.869,4.305,4.305,0,0,1-1.194-.158,7.029,7.029,0,0,1-1.96-.839,7.266,7.266,0,0,1-2.473-2.531c-1.02-1.782-.852-3.112-.745-3.1.183-.034.306,1.191,1.381,2.68a7.288,7.288,0,0,0,2.339,2.093,6.524,6.524,0,0,0,1.7.667c.656.174,1.253.155,1.29-.1a1.813,1.813,0,0,0-.517-1.427,10.439,10.439,0,0,0-1.269-1.4,11.372,11.372,0,0,0-2.662-1.809c-1.671-.811-2.863-.962-2.84-1.136" transform="translate(19.517 47.366)" fill="#263238"/><path d="M159.013,270.632a4.788,4.788,0,0,1-.265,1.194q-.386,1.323-.929,3.186c-.852,2.827-1.946,6.46-3.155,10.478s-2.288,7.657-3.133,10.486q-.573,1.856-.979,3.171a4.751,4.751,0,0,1-.435,1.143,4.774,4.774,0,0,1,.207-1.2c.171-.765.442-1.867.794-3.224.7-2.714,1.736-6.447,2.965-10.545s2.421-7.782,3.329-10.435c.453-1.326.833-2.395,1.111-3.128a4.8,4.8,0,0,1,.49-1.121" transform="translate(24.593 44.614)" fill="#fafafa"/><path d="M155.759,270.632a4.789,4.789,0,0,1-.265,1.194q-.386,1.323-.929,3.186c-.852,2.827-1.946,6.46-3.155,10.478s-2.288,7.657-3.133,10.486q-.573,1.856-.979,3.171a4.75,4.75,0,0,1-.435,1.143,4.774,4.774,0,0,1,.207-1.2c.171-.765.442-1.867.794-3.224.7-2.714,1.736-6.447,2.965-10.545s2.421-7.782,3.329-10.435c.453-1.326.833-2.395,1.111-3.128a4.8,4.8,0,0,1,.49-1.121" transform="translate(24.06 44.614)" fill="#fafafa"/><path d="M308.65,231.923c1.923,1.283,67.809,68.259,69.09,73.39s24.352,107.756,24.352,107.756l-22.429,6.415s-31.4-61.575-31.4-63.5S337.627,325.7,337.627,325.7l-39.993-35.141-41.655-37.843Z" transform="translate(41.939 38.233)" fill="#ffbe9d"/><path d="M394.511,399.535l-14.146-40.5-31.3,10.554,17.7,43.037Z" transform="translate(57.19 59.188)" fill="#455a64"/><path d="M391.1,392.851l.541.533s34.544,4.763,36.21,10.582l-61.7,13.688-3.659-16.13,2.381.016c9.543.068,18.339-3.312,26.225-8.69" transform="translate(59.39 64.762)" fill="#4d993a"/><g transform="translate(428.369 467.456)" opacity="0.6"><g clip-path="url(#k)"><path d="M369.387,401.574a2.583,2.583,0,0,0-1.1,3.264,2.48,2.48,0,0,0,3.223,1.125,2.725,2.725,0,0,0,1.152-3.463c-.669-1.079-2.521-1.625-3.482-.8" transform="translate(-368.066 -401.301)" fill="#fff"/></g></g><g transform="translate(424.607 466.136)" opacity="0.6"><g clip-path="url(#l)"><path d="M365.772,416.448l-.938-5.041,59.507-11.24s3.012.587,3.131,2.592Z" transform="translate(-364.834 -400.167)" fill="#fff"/></g></g><path d="M389.031,392.869c.057.3-1.419.775-2.687,2.073-1.3,1.265-1.776,2.741-2.08,2.684-.291,0-.241-1.9,1.322-3.446,1.548-1.559,3.45-1.6,3.445-1.312" transform="translate(62.934 64.742)" fill="#263238"/><path d="M394.871,393.926c.134.277-1.058,1.08-1.8,2.581-.786,1.481-.738,2.918-1.04,2.97-.272.111-.873-1.61.084-3.46.94-1.858,2.684-2.377,2.755-2.092" transform="translate(64.158 64.927)" fill="#263238"/><path d="M399.146,400.68c-.26.125-1.013-1.288-.6-3.111s1.671-2.793,1.854-2.571c.225.211-.493,1.3-.805,2.8-.347,1.495-.152,2.785-.445,2.881" transform="translate(65.276 65.111)" fill="#263238"/><path d="M389.169,393.3c.031.123-1.118.574-3.093.67a14.21,14.21,0,0,1-3.453-.277,14.705,14.705,0,0,1-1.983-.549,3.9,3.9,0,0,1-1.094-.52,1.347,1.347,0,0,1-.494-1.574,1.694,1.694,0,0,1,1.167-.983,4.158,4.158,0,0,1,1.194-.1,11.4,11.4,0,0,1,2.067.234,11.128,11.128,0,0,1,3.265,1.239c1.725,1.009,2.463,2.027,2.373,2.108-.114.129-1.02-.659-2.72-1.432a12.586,12.586,0,0,0-3.1-.942,11.81,11.81,0,0,0-1.9-.155c-.691-.026-1.249.092-1.351.421-.036.125-.035.17.144.331a3.162,3.162,0,0,0,.8.38,16.485,16.485,0,0,0,1.84.571,17.519,17.519,0,0,0,3.24.483c1.877.1,3.06-.073,3.09.091" transform="translate(62.087 64.287)" fill="#263238"/><path d="M387.734,394.741c-.1.07-.933-.878-1.476-2.806a10.245,10.245,0,0,1,.042-5.532,2.619,2.619,0,0,1,1.625-2,1.476,1.476,0,0,1,1.482.577,4.279,4.279,0,0,1,.569,1.063,7.014,7.014,0,0,1,.463,2.082,7.3,7.3,0,0,1-.612,3.488c-.852,1.868-2.029,2.508-2.076,2.411-.135-.129.787-.945,1.369-2.687a7.286,7.286,0,0,0,.334-3.123,6.549,6.549,0,0,0-.453-1.774c-.242-.635-.605-1.11-.836-.988-.307.063-.719.672-.857,1.252a10.4,10.4,0,0,0-.393,1.846A11.409,11.409,0,0,0,387,391.77c.318,1.831.889,2.889.736,2.972" transform="translate(63.225 63.364)" fill="#263238"/><path d="M351.317,373.1a4.794,4.794,0,0,1,1.123-.48l3.127-1.1,10.344-3.547,10.337-3.57,3.145-1.054a4.7,4.7,0,0,1,1.18-.312,4.7,4.7,0,0,1-1.1.533c-.72.308-1.772.73-3.079,1.236-2.612,1.012-6.244,2.349-10.287,3.741s-7.727,2.571-10.408,3.38c-1.342.405-2.43.72-3.188.921a4.8,4.8,0,0,1-1.2.255" transform="translate(57.559 59.846)" fill="#fafafa"/><path d="M353.215,375.746a4.8,4.8,0,0,1,1.123-.48l3.127-1.1,10.344-3.547,10.337-3.57,3.145-1.054a4.7,4.7,0,0,1,1.18-.312,4.766,4.766,0,0,1-1.1.534c-.72.307-1.772.73-3.078,1.236-2.613,1.012-6.245,2.35-10.288,3.741s-7.727,2.571-10.408,3.38c-1.342.405-2.43.72-3.188.921a4.739,4.739,0,0,1-1.2.255" transform="translate(57.869 60.281)" fill="#fafafa"/><path d="M255.707,210.316s-35.2,44.2-43.614,47.715c-2.693,1.123,6.961,12.453,6.961,12.453l4.78-5.418c15.2,8,26.961,18.48,39.072,33.223l21-19.738,17.643,23.383,50.215-31.1-24.657-26.588s-33.236-29.965-63.213-38.006c0,0-3.465-.023-8.185,4.075" transform="translate(34.671 33.999)" fill="#263238"/><path d="M302.377,243.972a2.927,2.927,0,0,1-.406.55l-1.259,1.5c-1.1,1.29-2.72,3.139-4.74,5.4-4.037,4.534-9.683,10.735-16.075,17.44s-12.332,12.636-16.784,16.769c-2.237,2.054-4.051,3.711-5.366,4.788l-1.507,1.246a2.929,2.929,0,0,1-.552.4,2.857,2.857,0,0,1,.473-.5l1.43-1.33c1.264-1.129,3.033-2.832,5.228-4.922,4.368-4.206,10.255-10.172,16.639-16.876s12.079-12.853,16.2-17.31l4.882-5.274,1.343-1.42a2.886,2.886,0,0,1,.5-.469" transform="translate(41.891 40.219)" fill="#455a64"/><path d="M263.264,290.165a2.656,2.656,0,0,1-.481-.455l-1.29-1.383c-1.1-1.217-2.73-2.942-4.787-5.03s-4.575-4.5-7.456-7.094c-2.9-2.566-6.169-5.3-9.724-8-3.571-2.692-7.084-5.1-10.34-7.2-3.27-2.073-6.274-3.852-8.844-5.258s-4.667-2.52-6.135-3.249l-1.679-.865a2.769,2.769,0,0,1-.568-.34,2.766,2.766,0,0,1,.62.229l1.729.764c1.5.665,3.637,1.712,6.236,3.083s5.64,3.108,8.939,5.164c3.283,2.079,6.822,4.485,10.406,7.187,3.57,2.719,6.841,5.475,9.732,8.072,2.87,2.622,5.372,5.073,7.389,7.212s3.61,3.9,4.657,5.172l1.2,1.458a2.69,2.69,0,0,1,.389.536" transform="translate(34.727 41.425)" fill="#455a64"/><path d="M279.362,211.536a3.645,3.645,0,0,1-.464.613l-1.421,1.68-5.271,6.132c-4.446,5.181-10.534,12.385-17.1,20.473s-12.351,15.542-16.5,20.963l-4.91,6.424-1.349,1.737a3.661,3.661,0,0,1-.5.581,3.69,3.69,0,0,1,.405-.654l1.258-1.8c1.1-1.562,2.725-3.8,4.758-6.543,4.065-5.49,9.808-12.985,16.373-21.086s12.713-15.261,17.243-20.373c2.266-2.556,4.118-4.607,5.419-6.007l1.506-1.6a3.667,3.667,0,0,1,.555-.531" transform="translate(37.984 34.872)" fill="#fafafa"/><path d="M276.134,211.337a3.524,3.524,0,0,1-.469.591l-1.433,1.612c-1.3,1.443-3.107,3.439-5.312,5.881-4.482,4.968-10.623,11.874-17.254,19.637s-12.49,14.915-16.7,20.121c-2.065,2.561-3.753,4.652-4.975,6.169-.561.685-1.014,1.237-1.367,1.667a3.522,3.522,0,0,1-.509.554,3.55,3.55,0,0,1,.413-.63l1.277-1.737c1.117-1.5,2.765-3.653,4.826-6.289,4.121-5.277,9.935-12.477,16.57-20.25s12.832-14.638,17.4-19.533c2.282-2.45,4.148-4.414,5.456-5.751l1.515-1.534a3.622,3.622,0,0,1,.559-.508" transform="translate(37.374 34.839)" fill="#fafafa"/><path d="M306.258,281.8c-.136.1-4.513-5.836-9.775-13.25s-9.419-13.506-9.283-13.6,4.513,5.835,9.776,13.251,9.418,13.505,9.282,13.6" transform="translate(47.053 42.028)" fill="#455a64"/><path d="M364.776,168.768c-.123,1.338-2.445,4.559-5.3,6.239a98.406,98.406,0,0,1-9.894,5.334c-6.46,3.137-56.938,21.25-56.938,21.25l4.451-9.914L296,185.2c13.906-3.026,52.1-14.428,61.946-20.991,2.03-1.354,3.377-4.309,1.576-6.367l.221-.7s.939-.209,3.928,4.9a10.684,10.684,0,0,1,1.1,6.721" transform="translate(47.946 25.906)" fill="#4d993a"/><g transform="translate(340.589 183.053)" opacity="0.3"><g clip-path="url(#m)"><path d="M364.776,168.768c-.123,1.338-2.445,4.559-5.3,6.239a98.406,98.406,0,0,1-9.894,5.334c-6.46,3.137-56.938,21.25-56.938,21.25l4.451-9.914L296,185.2c13.906-3.026,52.1-14.428,61.946-20.991,2.03-1.354,3.377-4.309,1.576-6.367l.221-.7s.939-.209,3.928,4.9a10.684,10.684,0,0,1,1.1,6.721" transform="translate(-292.643 -157.147)"/></g></g><path d="M253.591,187.921l48.954-6.021,5.993,3.252L297.111,198.48s-61.953,5.192-76.842,14.062c-14.242,8.485-18.257,29.866-40.856,31.964S99.739,222.832,88.4,228.154L81.66,210.413s34.032.628,59.2,9.716,33.113,11.136,45.98,0,23.856-21.779,46.189-27.1c13.665-3.256,20.561-5.107,20.561-5.107" transform="translate(13.379 29.987)" fill="#4d993a"/><g transform="translate(95.039 211.887)" opacity="0.3"><g clip-path="url(#n)"><path d="M253.591,187.921l48.954-6.021,5.993,3.252L297.111,198.48s-61.953,5.192-76.842,14.062c-14.242,8.485-18.257,29.866-40.856,31.964S99.739,222.832,88.4,228.154L81.66,210.413s34.032.628,59.2,9.716,33.113,11.136,45.98,0,23.856-21.779,46.189-27.1c13.665-3.256,20.561-5.107,20.561-5.107" transform="translate(-81.66 -181.9)"/></g></g><path d="M204.385,87.934c0,.168-18.818.3-42.025.3s-42.028-.135-42.028-.3,18.813-.3,42.028-.3,42.025.135,42.025.3" transform="translate(19.715 14.446)" fill="#455a64"/><path d="M151.674,105.129c0,.168-9.177.3-20.5.3s-20.5-.135-20.5-.3,9.176-.3,20.5-.3,20.5.135,20.5.3" transform="translate(18.134 17.281)" fill="#455a64"/><path d="M193.361,96.78c0,.168-37.647.3-84.076.3-46.446,0-84.085-.135-84.085-.3s37.638-.3,84.085-.3c46.429,0,84.076.135,84.076.3" transform="translate(4.129 15.904)" fill="#455a64"/><path d="M310.59,341.275c0,.168-18.817.3-42.025.3s-42.028-.135-42.028-.3,18.813-.3,42.028-.3,42.025.135,42.025.3" transform="translate(37.115 56.21)" fill="#455a64"/><path d="M299.565,350.121c0,.168-37.647.3-84.076.3-46.446,0-84.085-.135-84.085-.3s37.638-.3,84.085-.3c46.429,0,84.076.135,84.076.3" transform="translate(21.529 57.668)" fill="#455a64"/></g><g clip-path="url(#a)"><path d="M47.26,404.453c.758-2.939-1.167-5.891-3.326-8.022s-4.739-4.043-5.862-6.863c-1.819-4.567.626-10.483-2.478-14.294-1.827-2.242-5.1-2.992-6.722-5.387a12.261,12.261,0,0,1-1.459-4.281,43.482,43.482,0,0,0-10.8-20.235,37.759,37.759,0,0,0,4.239,19.5c1.257,2.4,2.8,4.733,3.218,7.407.676,4.343-1.746,8.817-.68,13.08,1.22,4.877,6.692,8.141,6.952,13.162.22,4.244-3.476,7.969-3.2,12.21a11.453,11.453,0,0,0,1.887,5.032c3.279,5.456,8.094,9.213,15.4,9.091l8.942.313Z" transform="translate(2.712 56.935)" fill="#4d993a"/><g transform="translate(19.264 402.307)" opacity="0.3"><g clip-path="url(#p)"><path d="M47.26,404.453c.758-2.939-1.167-5.891-3.326-8.022s-4.739-4.043-5.862-6.863c-1.819-4.567.626-10.483-2.478-14.294-1.827-2.242-5.1-2.992-6.722-5.387a12.261,12.261,0,0,1-1.459-4.281,43.482,43.482,0,0,0-10.8-20.235,37.759,37.759,0,0,0,4.239,19.5c1.257,2.4,2.8,4.733,3.218,7.407.676,4.343-1.746,8.817-.68,13.08,1.22,4.877,6.692,8.141,6.952,13.162.22,4.244-3.476,7.969-3.2,12.21a11.453,11.453,0,0,0,1.887,5.032c3.279,5.456,8.094,9.213,15.4,9.091l8.942.313Z" transform="translate(-16.552 -345.372)"/></g></g><path d="M50.372,429.753a7.133,7.133,0,0,0,2.46-.054,14.917,14.917,0,0,0,2.907-.732A12.32,12.32,0,0,0,59.329,427a5.007,5.007,0,0,0,1.475-1.969,9.228,9.228,0,0,0,.422-2.674,25.492,25.492,0,0,1,.207-2.895,8.029,8.029,0,0,1,1.092-2.878c1.056-1.853,2.807-3.608,3.373-6.125.61-2.475.172-5.154-.244-7.845s-.818-5.611.208-8.407c.96-2.8,2.92-5.326,3.9-8.481.975-3.187.52-6.615.727-10a13.26,13.26,0,0,1,1.165-4.969c.724-1.584,1.727-3.078,2.51-4.746,1.586-3.372,1.868-7.193,2.3-10.938q.318-2.829.64-5.718a27.944,27.944,0,0,1,1-5.723,50.308,50.308,0,0,1,2.138-5.539,18.346,18.346,0,0,0,1.037-2.894,28.8,28.8,0,0,0,.289-3.078,36.223,36.223,0,0,0-.237-6.195c-.243-2.065-.616-4.113-.836-6.183l-.042-.356-.047-.412-.364.183a13.8,13.8,0,0,0-4.814,4.066,21.907,21.907,0,0,0-2.957,5.455c-1.5,3.845-2.033,7.874-2.785,11.72a31.885,31.885,0,0,1-3.674,10.824c-.979,1.593-2.165,3.048-3.2,4.6a12.674,12.674,0,0,0-2.218,5.1c-.527,3.786,1.555,7.11,1.122,10.463a11.638,11.638,0,0,1-1.631,4.645c-.814,1.429-1.768,2.755-2.673,4.089a26.3,26.3,0,0,0-2.4,4.128,13.083,13.083,0,0,0-1.1,4.487c-.219,3.018.209,5.881-.012,8.584a19.765,19.765,0,0,1-2.207,7.356c-1.081,2.2-2.285,4.192-3.291,6.124a31.046,31.046,0,0,0-1.356,2.852,13.943,13.943,0,0,0-.784,2.829,17.832,17.832,0,0,0-.066,5.108,12.876,12.876,0,0,0,2.558,6.514,6.109,6.109,0,0,0,.724.785,3.556,3.556,0,0,0,.585.5c.334.246.513.359.513.359a11.29,11.29,0,0,1-1.733-1.713,12.962,12.962,0,0,1-2.427-6.471,17.773,17.773,0,0,1,.114-5.034,13.653,13.653,0,0,1,.791-2.762,30.571,30.571,0,0,1,1.364-2.814c1.015-1.914,2.231-3.9,3.337-6.113a20.121,20.121,0,0,0,2.282-7.484c.235-2.761-.179-5.634.048-8.582a12.654,12.654,0,0,1,1.078-4.336A26,26,0,0,1,57.6,380.4c.905-1.323,1.87-2.655,2.706-4.114a12.107,12.107,0,0,0,1.706-4.835c.431-3.57-1.639-6.918-1.1-10.437a12.151,12.151,0,0,1,2.144-4.878c1.02-1.526,2.214-2.982,3.223-4.616a32.382,32.382,0,0,0,3.759-11c.76-3.868,1.3-7.856,2.765-11.622a21.333,21.333,0,0,1,2.878-5.312,13.271,13.271,0,0,1,4.611-3.9l-.411-.228c.012.114.026.238.04.361.225,2.094.6,4.146.838,6.188A35.625,35.625,0,0,1,81,332.1a29.93,29.93,0,0,1-.275,2.986,18.287,18.287,0,0,1-1,2.79,50.59,50.59,0,0,0-2.157,5.6,28.488,28.488,0,0,0-1.007,5.818q-.319,2.89-.633,5.723c-.428,3.761-.709,7.52-2.236,10.775-.755,1.62-1.757,3.119-2.5,4.755a13.764,13.764,0,0,0-1.2,5.153c-.194,3.454.254,6.83-.679,9.888s-2.879,5.585-3.865,8.473c-1.053,2.918-.617,5.941-.19,8.616.431,2.694.866,5.318.289,7.7-.517,2.4-2.217,4.143-3.294,6.049a8.3,8.3,0,0,0-1.108,2.994,25.775,25.775,0,0,0-.189,2.93,9.077,9.077,0,0,1-.382,2.6,4.787,4.787,0,0,1-1.386,1.884,12.266,12.266,0,0,1-3.5,1.977,15.393,15.393,0,0,1-2.864.778,11.49,11.49,0,0,1-1.818.176c-.412-.015-.625-.008-.625-.008" transform="translate(7.51 52.584)" fill="#263238"/><path d="M77.987,323.564a1.079,1.079,0,0,0-.086.27c-.054.214-.118.48-.2.806-.176.7-.385,1.769-.723,3.1s-1.163,2.826-1.856,4.675A66.892,66.892,0,0,0,73,338.762c-.682,2.386-1.287,5.037-1.918,7.876a33.209,33.209,0,0,1-2.863,8.74c-.733,1.454-1.558,2.926-2.214,4.535a21.165,21.165,0,0,0-1.287,5.136,104.1,104.1,0,0,1-1.927,10.827c-1.793,7.334-3.5,14.32-5.056,20.68-1.593,6.339-3.028,12.052-4.238,16.866-1.178,4.772-2.134,8.649-2.808,11.383-.312,1.312-.557,2.348-.736,3.1-.072.328-.13.6-.177.811a1.058,1.058,0,0,0-.042.281,1.056,1.056,0,0,0,.1-.267c.063-.212.138-.473.233-.8.2-.748.485-1.775.84-3.075.717-2.723,1.734-6.585,2.985-11.338,1.244-4.807,2.72-10.508,4.356-16.836,1.57-6.362,3.294-13.349,5.1-20.685a102.416,102.416,0,0,0,1.924-10.872,20.708,20.708,0,0,1,1.239-5.011c.632-1.569,1.444-3.033,2.178-4.5a33.374,33.374,0,0,0,2.855-8.875c.612-2.847,1.192-5.49,1.845-7.871s1.345-4.506,2.034-6.341c.658-1.843,1.442-3.361,1.771-4.732.31-1.362.481-2.415.62-3.133.058-.331.1-.6.142-.817a1.057,1.057,0,0,0,.029-.283" transform="translate(8.148 53.34)" fill="#263238"/><path d="M55.638,433.793c5.84-3.475,7.516-14.021,5.08-20.37s-6.7-12.148-7.358-18.916c-.505-5.2,1.2-10.543-.014-15.629-1.634-6.863-8.328-12.178-8.252-19.233.043-3.958,2.294-7.683,2.115-11.637-.22-4.85-3.94-8.7-6.244-12.972C37.439,328.5,37.207,320.764,36,313.431s-4-15.186-10.491-18.79c-.959,6.225-2.6,10.489-2.082,18.923.185,3.03,3.7,8.828,4.178,15.467.286,3.967.484,7.941.726,11.912.236,3.864.486,7.8,1.87,11.413,1.06,2.77,2.764,5.286,3.551,8.146,1.482,5.382-.464,11.208.732,16.66,1.013,4.619,4.206,8.593,4.859,13.277.916,6.579-3.338,13.417-1.16,19.693,1.081,3.114,3.64,5.615,4.367,8.831.563,2.5-.051,5.137.46,7.643.822,4.039,8.518,7.176,12.628,6.925" transform="translate(3.822 48.572)" fill="#4d993a"/><path d="M26.587,299.946a1.631,1.631,0,0,0,.026.352c.034.261.077.6.132,1.023.134.9.285,2.22.588,3.927.327,1.717,1.21,3.649,1.917,5.98.745,2.323,1.486,5,2.141,8s1.224,6.318,1.81,9.891c.605,3.547,1.224,7.466,2.995,11.185.819,1.87,1.738,3.739,2.428,5.731a25.808,25.808,0,0,1,1.233,6.317,127.63,127.63,0,0,0,1.712,13.617c1.789,9.224,3.493,18.011,5.044,26.009,1.634,7.966,3.107,15.142,4.347,21.184,1.252,6,2.268,10.863,2.979,14.272.357,1.653.639,2.951.838,3.874.1.417.173.748.233,1.005a1.547,1.547,0,0,0,.1.338,1.636,1.636,0,0,0-.042-.349c-.044-.26-.1-.6-.176-1.017l-.733-3.9c-.668-3.417-1.624-8.295-2.8-14.308-1.206-6.049-2.637-13.234-4.226-21.208-1.536-8-3.225-16.78-5-26A129.237,129.237,0,0,1,40.414,352.3a26.157,26.157,0,0,0-1.274-6.444c-.71-2.035-1.642-3.913-2.462-5.766-1.761-3.665-2.379-7.491-3.009-11.05-.605-3.567-1.188-6.9-1.883-9.9s-1.456-5.693-2.233-8.015c-.741-2.339-1.653-4.254-2-5.928-.333-1.676-.523-3.009-.692-3.9-.078-.421-.14-.756-.187-1.015a1.616,1.616,0,0,0-.084-.342" transform="translate(4.355 49.447)" fill="#263238"/><path d="M301.5,375.288a8.836,8.836,0,0,1,5.808,3.765,15.612,15.612,0,0,1,2.479,6.608c.732,4.535-.524,9.671-2.228,13.934-4.6-2.193-7.027-7.59-8.086-10.4-1.674-4.45-2-13.508,2.027-13.9" transform="translate(48.872 61.867)" fill="#4d993a"/><path d="M311.8,403.037a7.55,7.55,0,0,1,.414-7.565,10.006,10.006,0,0,1,6.49-4.214,4.212,4.212,0,0,1,3.514.528,3.229,3.229,0,0,1,.929,3.136,6.542,6.542,0,0,1-1.688,2.949c-2.642,2.91-5.732,5.24-9.659,5.166" transform="translate(50.949 64.476)" fill="#4d993a"/><path d="M310.927,417.118a5.36,5.36,0,0,1-.121-.939c-.061-.667-.14-1.529-.235-2.566a26.548,26.548,0,0,1,.338-8.5,16.223,16.223,0,0,1,3.928-7.512,11.038,11.038,0,0,1,2-1.647,6.878,6.878,0,0,1,.61-.351c.143-.075.22-.108.226-.1a17.235,17.235,0,0,0-2.662,2.259,16.733,16.733,0,0,0-3.775,7.428,28.547,28.547,0,0,0-.426,8.408c.062,1.086.112,1.965.129,2.574a5.01,5.01,0,0,1-.008.947" transform="translate(50.852 65.199)" fill="#263238"/><path d="M301.782,381.191a1.978,1.978,0,0,1,.156.382l.383,1.114c.328.969.784,2.377,1.333,4.122,1.1,3.49,2.549,8.332,4.029,13.715s2.709,10.289,3.55,13.85c.42,1.781.748,3.224.961,4.225.1.473.178.855.24,1.153a1.889,1.889,0,0,1,.062.408,1.886,1.886,0,0,1-.127-.392c-.077-.294-.177-.672-.3-1.139-.262-1.031-.623-2.456-1.065-4.2-.9-3.545-2.162-8.436-3.641-13.818s-2.893-10.229-3.934-13.735l-1.231-4.153-.324-1.132a1.948,1.948,0,0,1-.092-.4" transform="translate(49.443 62.84)" fill="#263238"/><path d="M309.221,406.6a17.64,17.64,0,0,0-12.755-9.855c-1.4-.246-3.124-.181-3.881,1.024s-.07,2.8.786,3.936a15.06,15.06,0,0,0,15.864,5.28" transform="translate(47.882 65.385)" fill="#4d993a"/><path d="M297.39,400.161a4.6,4.6,0,0,1,.881.122,8.734,8.734,0,0,1,1.018.225c.39.115.848.205,1.327.393a15.376,15.376,0,0,1,1.563.612,17.387,17.387,0,0,1,1.724.864A19.607,19.607,0,0,1,307.454,405a19.252,19.252,0,0,1,2.808,3.412,16.656,16.656,0,0,1,.94,1.687,14.525,14.525,0,0,1,.67,1.54,13.469,13.469,0,0,1,.434,1.316,8.06,8.06,0,0,1,.251,1.013,4.476,4.476,0,0,1,.142.878c-.072.018-.288-1.238-1.046-3.121a15.71,15.71,0,0,0-.7-1.5,17.581,17.581,0,0,0-.952-1.644,19.96,19.96,0,0,0-2.779-3.336,20.423,20.423,0,0,0-3.476-2.6,18.074,18.074,0,0,0-1.684-.878,16.478,16.478,0,0,0-1.528-.641c-1.906-.7-3.162-.891-3.147-.962" transform="translate(48.723 65.966)" fill="#263238"/></g><g clip-path="url(#a)"><path d="M311.294,84.282l-5-16.7c4.864-5.726,6.491-10.8,7.714-18.773a42,42,0,1,0-21.133,30.353l2.642-2.021Z" transform="translate(37.772 0.068)" fill="#fff"/><path d="M275.879,33.594h-2.585l-5.642-7.87V20.558s-4-.246-3.526,6.519-.038,5.041-.038,5.041-8.486.033-9.191.77c-.513.536-.745,8.973-.833,13.548a4.952,4.952,0,0,0,3.507,4.989,3.7,3.7,0,0,0,.914.123c2.116,0,12.93-1.723,12.93-1.723h4.466Z" transform="translate(41.625 3.389)" fill="#4d993a"/><path d="M280.015,30.532l-1.59,17.7H274V30.888Z" transform="translate(44.891 5.033)" fill="#4d993a"/><path d="M272.615.016A4.094,4.094,0,0,0,271.884,0l-2.151.062c-.471.022-1,.021-1.584.07l-1.9.267L264.04.72l-2.473.614a40.06,40.06,0,0,0-11.984,5.229,42.335,42.335,0,0,0-19.424,31.816,43.84,43.84,0,0,0-.118,5.8c.069.981.049,1.978.192,2.967s.3,1.984.449,2.987a42.581,42.581,0,0,0,4.028,11.8,45.467,45.467,0,0,0,7.7,10.608,44.52,44.52,0,0,0,11.1,7.979,40.324,40.324,0,0,0,13.526,4.155,26.761,26.761,0,0,0,3.608.306,32.259,32.259,0,0,0,3.647.066,43.336,43.336,0,0,0,7.3-.923A42.665,42.665,0,0,0,296.139,78l-.441.045L310.511,84l.878.352-.25-.911q-2.243-8.162-4.355-15.85l-.074.391a42.554,42.554,0,0,0,7.9-18.112,38.587,38.587,0,0,0,.576-9.279,29.722,29.722,0,0,0-.421-4.457q-.168-1.092-.336-2.169c-.132-.714-.349-1.4-.518-2.1A42.4,42.4,0,0,0,297.387,7.749a40.508,40.508,0,0,0-9.836-5.193l-2.216-.794-2.1-.535L281.309.749c-.618-.118-1.213-.182-1.771-.268-1.12-.142-2.1-.335-2.967-.379L274.395.029,273.065,0a1.974,1.974,0,0,0-.45.016,2.041,2.041,0,0,0,.449.062l1.323.1,2.164.146c.855.066,1.83.283,2.939.447A42.14,42.14,0,0,1,313.172,32.05c.162.684.372,1.363.5,2.064q.159,1.057.319,2.131a28.99,28.99,0,0,1,.392,4.376,37.746,37.746,0,0,1-.6,9.1,41.787,41.787,0,0,1-7.8,17.719l-.134.176.058.216,4.322,15.859.626-.559L296.054,77.16l-.232-.093-.211.137a41.8,41.8,0,0,1-14.217,5.983,42.369,42.369,0,0,1-7.14.9,31.639,31.639,0,0,1-3.566-.064,25.95,25.95,0,0,1-3.528-.3,39.438,39.438,0,0,1-13.229-4.049,43.719,43.719,0,0,1-10.87-7.786A44.732,44.732,0,0,1,235.5,61.528a41.821,41.821,0,0,1-3.983-11.549q-.227-1.473-.452-2.926c-.144-.969-.128-1.948-.2-2.909a43.068,43.068,0,0,1,.09-5.693A41.891,41.891,0,0,1,249.875,7.015a40.3,40.3,0,0,1,11.79-5.32l2.442-.651L266.3.685l1.878-.31c.576-.064,1.1-.079,1.572-.116L271.885.1a4.247,4.247,0,0,0,.73-.086" transform="translate(37.678 0)" fill="#263238"/></g></g></svg>