<svg xmlns="http://www.w3.org/2000/svg" width="82" height="70" viewBox="0 0 82 70"><path d="M605.452,860.734c0,4.3-11.114,13.715-16.277,17.854a.255.255,0,0,0,.293.419c6.953-4.021,24.145-14.83,24.145-23.368,0-4.676-7.225-7.519-13.764-11.714-5.564-3.583-10.452-8.919-11.976-8.919-3.312,0-6.37,3.822-6.37,7.135C581.5,849.522,605.452,853.594,605.452,860.734Z" transform="translate(-552.179 -813.198)" fill="#313131"/><path d="M646.824,872.375C653.3,867.2,661.6,858.611,661.6,853.52a1.063,1.063,0,0,1,.016-.161,1.012,1.012,0,0,1,.028-.12.322.322,0,0,1,.025-.082.255.255,0,0,1,.022-.054.887.887,0,0,1,.69-.572,1.023,1.023,0,0,1,.239-.031,1.009,1.009,0,0,1,.5.137,24.135,24.135,0,0,1,3.066,2.921c1.434,1.283,3.057,2.013,3.057,3.567,0,3.567-10.193,12.231-17.836,17.327-6.21,4.14-13.092,12.316-15.457,15.239a.255.255,0,0,1-.439-.237C636.723,887.79,640.586,877.367,646.824,872.375Z" transform="translate(-635.503 -821.782)" fill="#371"/><path d="M598.814,791.5c-6.665,0-12.1,8.447-14.256,12.344a.255.255,0,0,0,.41.293c2.609-2.879,8.389-8.563,13.335-8.563,3.872,0,9.579,6.891,12.764,12.385a.255.255,0,0,0,.473-.146C611.214,795.37,604.772,791.5,598.814,791.5Z" transform="translate(-551.654 -791.5)" fill="#313131"/><path d="M541.83,808.347c1.237,2.589,4.194,9.292,4.526,14.822a1.025,1.025,0,0,0,1.072.958,25.676,25.676,0,0,0,13.911-5.39.255.255,0,0,1,.384.315c-1.4,2.76-6.264,10.2-17.886,10.2a2.038,2.038,0,0,1-2.038-2.038c0-7.687-.321-15.75-.454-18.743a.255.255,0,0,1,.486-.12Z" transform="translate(-479.749 -799.689)" fill="#371"/><circle cx="5.605" cy="5.605" r="5.605" transform="translate(65.363 2.803)" fill="#313131"/></svg>